<?xml version="1.0" encoding="UTF-8"?>
<svg version="1.1" xmlns="http://www.w3.org/2000/svg" width="7002" height="4002">
<path d="M0 0 C2310.66 0 4621.32 0 7002 0 C7002 1320.66 7002 2641.32 7002 4002 C4691.34 4002 2380.68 4002 0 4002 C0 2681.34 0 1360.68 0 0 Z " fill="#020C17" transform="translate(0,0)"/>
<path d="M0 0 C2310.66 0 4621.32 0 7002 0 C7002 1320.66 7002 2641.32 7002 4002 C4691.34 4002 2380.68 4002 0 4002 C0 2681.34 0 1360.68 0 0 Z M1 1 C1 560.68 1 1120.36 1 1697 C11.44532017 1702.49753693 21.82049408 1707.95048503 32.390625 1713.171875 C36.60601968 1715.27733724 40.69691732 1717.59323123 44.765625 1719.96875 C47.19516034 1721.27937212 47.19516034 1721.27937212 51 1721 C51 1721.66 51 1722.32 51 1723 C53.93257033 1724.50978518 56.87180894 1726.00610203 59.8125 1727.5 C60.64587891 1727.92925781 61.47925781 1728.35851563 62.33789062 1728.80078125 C63.14033203 1729.20683594 63.94277344 1729.61289063 64.76953125 1730.03125 C65.50792236 1730.40830078 66.24631348 1730.78535156 67.00708008 1731.17382812 C69.10232085 1732.19147572 69.10232085 1732.19147572 72 1732 C72 1732.66 72 1733.32 72 1734 C73.08192627 1734.55349121 74.16385254 1735.10698242 75.27856445 1735.67724609 C79.39257396 1737.78226226 83.50583321 1739.8887411 87.61889648 1741.99560547 C89.38041909 1742.89768131 91.14213016 1743.79938924 92.90405273 1744.70068359 C103.05566009 1749.89398944 113.1829597 1755.12853841 123.26704407 1760.45187378 C130.32350595 1764.17623984 137.40761016 1767.84453857 144.5 1771.5 C153.24625258 1776.01390072 161.97840754 1780.5522047 170.6796875 1785.15234375 C178.56660151 1789.31412363 186.49331241 1793.39874083 194.41705322 1797.48977661 C201.75155571 1801.27717712 209.07827944 1805.07764058 216.375 1808.9375 C224.71955245 1813.35077413 233.10858851 1817.6767705 241.5 1822 C251.4976205 1827.15106885 261.47755718 1832.33254291 271.421875 1837.5859375 C279.62278342 1841.91679476 287.85382716 1846.19035437 296.078125 1850.4765625 C298.92772488 1851.96231645 301.77651733 1853.44960542 304.625 1854.9375 C314.99078965 1860.35122661 325.36565129 1865.74695001 335.75 1871.125 C343.30487606 1875.0378187 350.85237564 1878.96301626 358.375 1882.9375 C366.26875151 1887.10688185 374.19380479 1891.21493061 382.125 1895.3125 C382.74379028 1895.63220764 383.36258057 1895.95191528 384.00012207 1896.28131104 C384.61915405 1896.60113953 385.23818604 1896.92096802 385.87597656 1897.25048828 C387.12565574 1897.89614976 388.37533023 1898.54182032 389.625 1899.1875 C390.24340759 1899.5070163 390.86181519 1899.82653259 391.4989624 1900.1557312 C405.56649128 1907.42579284 419.61571155 1914.73042725 433.61962891 1922.12231445 C441.73487956 1926.39950268 449.88433907 1930.61046512 458.03076172 1934.82788086 C464.53263584 1938.19595232 471.02515633 1941.58026844 477.5 1945 C486.22355509 1949.60654191 494.98122891 1954.1462924 503.74121094 1958.68310547 C512.96567767 1963.46112538 522.17946105 1968.25922655 531.38671875 1973.0703125 C535.1776441 1975.05077498 538.97219274 1977.02405083 542.76953125 1978.9921875 C553.2292538 1984.41979258 563.63894715 1989.91924471 573.94165039 1995.640625 C579.76726058 1998.85506966 585.67688498 2001.86631442 591.63418579 2004.82626343 C599.56503397 2008.76851413 607.43905475 2012.81962435 615.3125 2016.875 C616.08023743 2017.27006744 616.84797485 2017.66513489 617.63897705 2018.07217407 C626.77607723 2022.77446906 635.90229604 2027.49488128 644.98364258 2032.30419922 C652.13074709 2036.08449922 659.31574146 2039.79100527 666.5 2043.5 C675.24551522 2048.01534602 683.97839146 2052.5521962 692.6796875 2057.15234375 C699.93057701 2060.97850517 707.21531734 2064.73875162 714.5 2068.5 C723.29484508 2073.04108973 732.07746755 2077.60307047 740.82910156 2082.22705078 C748.77794436 2086.42160456 756.76086783 2090.55008027 764.74169922 2094.68334961 C774.90162655 2099.94593801 785.04763503 2105.23484286 795.18945312 2110.53222656 C799.9588518 2113.02298619 804.72948196 2115.51138514 809.5 2118 C815.203716 2120.97543208 820.9072152 2123.95127395 826.609375 2126.9296875 C836.98055495 2132.34566814 847.36051365 2137.74421118 857.75 2143.125 C866.18209997 2147.49272351 874.60266987 2151.88064985 883.00097656 2156.31298828 C890.14383795 2160.08154839 897.30521302 2163.81425161 904.46728516 2167.54614258 C910.36168645 2170.61902761 916.24694969 2173.70847694 922.125 2176.8125 C930.86088121 2181.42310397 939.63648619 2185.95614641 948.41339111 2190.48794556 C955.79041223 2194.29744124 963.15994162 2198.11959744 970.5 2202 C978.39257531 2206.17168918 986.31841418 2210.27811919 994.25 2214.375 C1009.94708751 2222.48371367 1025.62303593 2230.63181841 1041.25 2238.875 C1050.05777255 2243.52066086 1058.89791952 2248.10311948 1067.74023438 2252.68261719 C1079.77183783 2258.91459596 1091.78308218 2265.18528838 1103.79296875 2271.45898438 C1106.6118124 2272.93130926 1109.43083639 2274.40328787 1112.25 2275.875 C1113.18585938 2276.36355469 1114.12171875 2276.85210938 1115.0859375 2277.35546875 C1122.63331573 2281.29278666 1130.19094803 2285.21015113 1137.75 2289.125 C1146.09217702 2293.44576592 1154.42090058 2297.78995846 1162.72851562 2302.17675781 C1170.71153881 2306.38642205 1178.7272797 2310.53267367 1186.74121094 2314.68310547 C1196.90131032 2319.94575734 1207.04747377 2325.23475863 1217.18945312 2330.53222656 C1221.9588518 2333.02298619 1226.72948196 2335.51138514 1231.5 2338 C1237.203716 2340.97543208 1242.9072152 2343.95127395 1248.609375 2346.9296875 C1258.98055481 2352.34566807 1269.36049246 2357.74425225 1279.75 2363.125 C1288.09217702 2367.44576592 1296.42090058 2371.78995846 1304.72851562 2376.17675781 C1312.71153881 2380.38642205 1320.7272797 2384.53267367 1328.74121094 2388.68310547 C1338.90131032 2393.94575734 1349.04747377 2399.23475863 1359.18945312 2404.53222656 C1363.9588518 2407.02298619 1368.72948196 2409.51138514 1373.5 2412 C1379.203716 2414.97543208 1384.9072152 2417.95127395 1390.609375 2420.9296875 C1400.98055474 2426.34566803 1411.36048187 2431.74427277 1421.75 2437.125 C1430.04285054 2441.42003018 1438.3217487 2445.73922699 1446.57910156 2450.10205078 C1453.86422549 2453.94360888 1461.1820764 2457.72146276 1468.5 2461.5 C1477.29482844 2466.0411224 1486.07746719 2470.60307028 1494.82910156 2475.22705078 C1502.77794436 2479.42160456 1510.76086783 2483.55008027 1518.74169922 2487.68334961 C1528.90162655 2492.94593801 1539.04763503 2498.23484286 1549.18945312 2503.53222656 C1553.9588518 2506.02298619 1558.72948196 2508.51138514 1563.5 2511 C1569.203716 2513.97543208 1574.9072152 2516.95127395 1580.609375 2519.9296875 C1590.98055481 2525.34566807 1601.36049246 2530.74425225 1611.75 2536.125 C1620.08926599 2540.44425818 1628.41538838 2544.78637208 1636.71972656 2549.17236328 C1643.62859701 2552.81616369 1650.56356921 2556.40899894 1657.5 2560 C1665.96895907 2564.38455939 1674.42600022 2568.78960152 1682.859375 2573.2421875 C1690.47249832 2577.25804465 1698.11245937 2581.22189192 1705.75146484 2585.18823242 C1711.92831608 2588.39723711 1718.09533089 2591.62368187 1724.25 2594.875 C1732.94318173 2599.46561 1741.67691653 2603.97693652 1750.41192627 2608.48721313 C1758.56915791 2612.69978138 1766.7116828 2616.93816204 1774.82910156 2621.22705078 C1782.77794436 2625.42160456 1790.76086783 2629.55008027 1798.74169922 2633.68334961 C1808.90162655 2638.94593801 1819.04763503 2644.23484286 1829.18945312 2649.53222656 C1833.9588518 2652.02298619 1838.72948196 2654.51138514 1843.5 2657 C1849.203716 2659.97543208 1854.9072152 2662.95127395 1860.609375 2665.9296875 C1870.98055481 2671.34566807 1881.36049246 2676.74425225 1891.75 2682.125 C1900.09217702 2686.44576592 1908.42090058 2690.78995846 1916.72851562 2695.17675781 C1924.71153881 2699.38642205 1932.7272797 2703.53267367 1940.74121094 2707.68310547 C1950.90131032 2712.94575734 1961.04747377 2718.23475863 1971.18945312 2723.53222656 C1975.9588518 2726.02298619 1980.72948196 2728.51138514 1985.5 2731 C1991.203716 2733.97543208 1996.9072152 2736.95127395 2002.609375 2739.9296875 C2012.98055481 2745.34566807 2023.36049246 2750.74425225 2033.75 2756.125 C2042.09217702 2760.44576592 2050.42090058 2764.78995846 2058.72851562 2769.17675781 C2066.71153881 2773.38642205 2074.7272797 2777.53267367 2082.74121094 2781.68310547 C2092.90131032 2786.94575734 2103.04747377 2792.23475863 2113.18945312 2797.53222656 C2117.9588518 2800.02298619 2122.72948196 2802.51138514 2127.5 2805 C2133.203716 2807.97543208 2138.9072152 2810.95127395 2144.609375 2813.9296875 C2154.98055474 2819.34566803 2165.36048187 2824.74427277 2175.75 2830.125 C2184.04285054 2834.42003018 2192.3217487 2838.73922699 2200.57910156 2843.10205078 C2207.86422549 2846.94360888 2215.1820764 2850.72146276 2222.5 2854.5 C2231.29482844 2859.0411224 2240.07746719 2863.60307028 2248.82910156 2868.22705078 C2256.77794436 2872.42160456 2264.76086783 2876.55008027 2272.74169922 2880.68334961 C2282.90162655 2885.94593801 2293.04763503 2891.23484286 2303.18945312 2896.53222656 C2307.9588518 2899.02298619 2312.72948196 2901.51138514 2317.5 2904 C2323.203716 2906.97543208 2328.9072152 2909.95127395 2334.609375 2912.9296875 C2344.98055495 2918.34566814 2355.36051365 2923.74421118 2365.75 2929.125 C2374.18501107 2933.49423142 2382.60818767 2937.88422521 2391.00976562 2942.31738281 C2400.01041017 2947.06535824 2409.0364333 2951.76460372 2418.06054688 2956.46777344 C2422.87444744 2958.97707908 2427.6871718 2961.48863837 2432.5 2964 C2434.41666086 2965.00001113 2436.33332753 2966.00001112 2438.25 2967 C2472.75000008 2985.00000004 2472.75000008 2985.00000004 2475.62402344 2986.49951172 C2477.5439221 2987.50118381 2479.46384404 2988.50281129 2481.38378906 2989.50439453 C2486.12619636 2991.97844944 2490.86821884 2994.45323573 2495.609375 2996.9296875 C2505.98055481 3002.34566807 2516.36049246 3007.74425225 2526.75 3013.125 C2535.09217702 3017.44576592 2543.42090058 3021.78995846 2551.72851562 3026.17675781 C2559.71153881 3030.38642205 2567.7272797 3034.53267367 2575.74121094 3038.68310547 C2587.77246649 3044.91496474 2599.78340465 3051.18545683 2611.79296875 3057.45898438 C2614.6118124 3058.93130926 2617.43083639 3060.40328787 2620.25 3061.875 C2621.18585937 3062.36355469 2622.12171875 3062.85210938 2623.0859375 3063.35546875 C2630.63331573 3067.29278666 2638.19094803 3071.21015113 2645.75 3075.125 C2654.08926599 3079.44425818 2662.41538838 3083.78637208 2670.71972656 3088.17236328 C2678.80242538 3092.43525133 2686.92063711 3096.62936862 2695.03564453 3100.83032227 C2701.49461243 3104.17606945 2707.94375938 3107.53878387 2714.375 3110.9375 C2722.39177383 3115.17331312 2730.44364024 3119.34017858 2738.5 3123.5 C2747.29191499 3128.03961807 2756.0719843 3132.59942943 2764.8203125 3137.22265625 C2771.69500068 3140.8509639 2778.59676923 3144.4263554 2785.5 3148 C2793.92254605 3152.36032403 2802.33236634 3156.74244701 2810.71875 3161.171875 C2817.62797595 3164.81578183 2824.56325265 3168.40881807 2831.5 3172 C2840.02120404 3176.4117961 2848.53066589 3180.84391289 2857.01757812 3185.32128906 C2872.71711352 3193.60154959 2888.47604228 3201.76801462 2904.23681641 3209.9309082 C2911.36617456 3213.62619524 2918.4791133 3217.35072779 2925.57910156 3221.10205078 C2932.86422549 3224.94360888 2940.1820764 3228.72146276 2947.5 3232.5 C2956.29191499 3237.03961807 2965.0719843 3241.59942943 2973.8203125 3246.22265625 C2980.69500056 3249.85096384 2987.59676243 3253.42636873 2994.5 3257 C3002.13838096 3260.95419639 3009.77039938 3264.9186986 3017.375 3268.9375 C3026.02679604 3273.50883904 3034.71991914 3277.99928908 3043.41448975 3282.48849487 C3051.52149869 3286.67496499 3059.61336937 3290.88789241 3067.6796875 3295.15234375 C3074.93057701 3298.97850517 3082.21531734 3302.73875162 3089.5 3306.5 C3098.29484508 3311.04108973 3107.07746755 3315.60307047 3115.82910156 3320.22705078 C3122.61873123 3323.80989517 3129.43316871 3327.34423342 3136.25 3330.875 C3140.8333796 3333.24991071 3145.41673446 3335.62486918 3150 3338 C3150.9904834 3338.51320801 3151.9809668 3339.02641602 3153.00146484 3339.55517578 C3168.03395948 3347.35046941 3182.96857329 3355.32091063 3197.88769531 3363.33007812 C3207.5848244 3368.53311883 3217.29401023 3373.68218154 3227.1550293 3378.5690918 C3245.98721137 3387.93682598 3264.58152581 3397.80627145 3283.22167969 3407.54833984 C3287.97993081 3410.03450515 3292.74006408 3412.51706233 3297.5 3415 C3303.20372457 3417.97541564 3308.90721521 3420.95127396 3314.609375 3423.9296875 C3324.98055495 3429.34566814 3335.36051365 3434.74421118 3345.75 3440.125 C3354.18209997 3444.49272351 3362.60266987 3448.88064985 3371.00097656 3453.31298828 C3378.14383795 3457.08154839 3385.30521302 3460.81425161 3392.46728516 3464.54614258 C3399.11457706 3468.01152656 3405.74880992 3471.50082799 3412.37719727 3475.00219727 C3417.21359526 3477.55060119 3422.06475968 3480.06923529 3426.92578125 3482.5703125 C3429.42979987 3483.85915686 3431.93373698 3485.14815916 3434.4375 3486.4375 C3435.37573105 3486.92062653 3435.37573105 3486.92062653 3436.33291626 3487.41351318 C3444.22085131 3491.47949591 3452.05680156 3495.62308692 3459.8125 3499.9375 C3465.90891876 3503.32838947 3472.03969227 3506.58257093 3478.29663086 3509.66625977 C3485.3633606 3513.15667766 3492.37188031 3516.75915614 3499.375 3520.375 C3500.00875549 3520.70214996 3500.64251099 3521.02929993 3501.29547119 3521.36636353 C3509.59277033 3525.6553894 3517.81561765 3530.05394108 3525.95092773 3534.64404297 C3531.18689821 3537.58615384 3536.50564236 3540.31126736 3541.89379883 3542.96264648 C3547.14498076 3545.55160431 3552.32739644 3548.25774684 3557.5 3551 C3563.13504245 3553.98395116 3568.7849366 3556.92226962 3574.5 3559.75 C3581.73128698 3563.33255795 3588.89961084 3567.03278627 3596.0625 3570.75 C3597.21032959 3571.34538574 3598.35815918 3571.94077148 3599.54077148 3572.55419922 C3605.29611153 3575.54357847 3611.04412915 3578.54610673 3616.78125 3581.5703125 C3617.84077881 3582.12750977 3618.90030762 3582.68470703 3619.99194336 3583.25878906 C3622.00246603 3584.31704302 3624.01116927 3585.37876258 3626.01782227 3586.44433594 C3627.35671509 3587.14864746 3627.35671509 3587.14864746 3628.72265625 3587.8671875 C3629.50390869 3588.28081543 3630.28516113 3588.69444336 3631.09008789 3589.12060547 C3632.95233972 3590.13941111 3632.95233972 3590.13941111 3635 3590 C3635 3590.66 3635 3591.32 3635 3592 C3635.81478317 3592.3525032 3635.81478317 3592.3525032 3636.64602661 3592.71212769 C3642.25914831 3595.16962913 3647.73331149 3597.82732644 3653.1796875 3600.6328125 C3654.03192902 3601.06955292 3654.88417053 3601.50629333 3655.76223755 3601.95626831 C3657.5595261 3602.87790586 3659.35621995 3603.80070397 3661.15234375 3604.72460938 C3663.83199714 3606.1028816 3666.51347212 3607.47755146 3669.1953125 3608.8515625 C3679.39183445 3614.08168315 3689.55123206 3619.37842816 3699.68603516 3624.72705078 C3705.52477885 3627.80717127 3711.38609471 3630.84307377 3717.25 3633.875 C3725.6737481 3638.23653455 3734.0922718 3642.60766143 3742.5 3647 C3750.82536072 3651.34878692 3759.16028541 3655.67880653 3767.5 3660 C3770.90355953 3661.76482657 3774.3070167 3663.52985039 3777.71044922 3665.29492188 C3779.85486901 3666.40644242 3781.99970586 3667.51715882 3784.14501953 3668.62695312 C3794.73059697 3674.10383147 3805.25535427 3679.64935324 3815.64453125 3685.4909668 C3821.02914915 3688.50277443 3826.4935976 3691.30619052 3832.02856445 3694.0300293 C3837.67456187 3696.81344507 3843.23095249 3699.74990969 3848.78320312 3702.71508789 C3853.17526207 3705.0537887 3857.59678717 3707.30516044 3862.0625 3709.5 C3867.0448306 3711.96279212 3871.87342056 3714.60528816 3876.6875 3717.375 C3883.36745835 3721.21247515 3890.21932819 3724.5266831 3897.20703125 3727.76293945 C3902.66446824 3730.31052365 3907.83531519 3733.14070584 3912.9921875 3736.2578125 C3917.1883688 3738.6883279 3921.51901186 3740.8083269 3925.86791992 3742.94946289 C3930.4602276 3745.21537909 3934.99350069 3747.56821336 3939.5 3750 C3944.37660479 3752.62596149 3949.28553547 3755.16821827 3954.25 3757.625 C3961.522766 3761.22898456 3968.73369217 3764.94777658 3975.9375 3768.6875 C3977.65102661 3769.57646973 3977.65102661 3769.57646973 3979.39916992 3770.48339844 C3984.75088276 3773.26286892 3990.09890994 3776.04892044 3995.43754578 3778.85340881 C3997.19350216 3779.77560604 3998.95038024 3780.69604757 4000.70727539 3781.61645508 C4002.90882557 3782.77033457 4005.10859848 3783.92761272 4007.30639648 3785.08862305 C4008.28938721 3785.60336182 4009.27237793 3786.11810059 4010.28515625 3786.6484375 C4011.15019775 3787.10395996 4012.01523926 3787.55948242 4012.90649414 3788.02880859 C4014.91774535 3789.14027615 4014.91774535 3789.14027615 4017 3789 C4017.33 3789.66 4017.66 3790.32 4018 3791 C4020.19033431 3792.19640109 4022.37580522 3793.29921538 4024.625 3794.375 C4031.49168234 3797.73333623 4038.29103355 3801.20361616 4045.0625 3804.75 C4046.0213208 3805.25096191 4046.9801416 3805.75192383 4047.96801758 3806.26806641 C4053.15613818 3808.98069149 4058.33797842 3811.70493906 4063.515625 3814.4375 C4064.56999756 3814.99211914 4065.62437012 3815.54673828 4066.71069336 3816.11816406 C4068.74719671 3817.18955237 4070.78192833 3818.26431654 4072.81469727 3819.34277344 C4074.18452759 3820.06255371 4074.18452759 3820.06255371 4075.58203125 3820.796875 C4076.38874268 3821.22323242 4077.1954541 3821.64958984 4078.02661133 3822.08886719 C4079.94037099 3823.13972879 4079.94037099 3823.13972879 4082 3823 C4082.33 3823.66 4082.66 3824.32 4083 3825 C4085.31554614 3826.2572692 4087.62605199 3827.42549216 4090 3828.5625 C4095.89062805 3831.44141831 4101.71945019 3834.40594936 4107.5 3837.5 C4112.71548602 3840.28225848 4117.95182501 3843.00367188 4123.25 3845.625 C4139.86348407 3853.85569062 4156.28848293 3862.48740196 4172.67895508 3871.15185547 C4179.29522321 3874.64343703 4185.93984105 3878.07957488 4192.58688354 3881.51205444 C4208.24084287 3889.59585902 4223.8639415 3897.71592094 4239.3125 3906.1875 C4246.30081201 3910.01954845 4253.31623381 3913.72162746 4260.46875 3917.23828125 C4264.74090441 3919.36963262 4268.96545273 3921.58391331 4273.1875 3923.8125 C4274.38922852 3924.44671875 4274.38922852 3924.44671875 4275.61523438 3925.09375 C4278.89304741 3926.82552352 4282.16942354 3928.56000013 4285.4453125 3930.29541016 C4294.231491 3934.94805894 4303.03186971 3939.55053462 4311.94213867 3943.96142578 C4317.98339705 3946.9636571 4323.94261545 3950.11431872 4329.90283203 3953.27368164 C4335.83567597 3956.41006435 4341.81293728 3959.44486625 4347.83789062 3962.40039062 C4350.5713526 3963.74828015 4353.21804885 3965.13318496 4355.8203125 3966.72265625 C4357.86652431 3968.16853348 4357.86652431 3968.16853348 4360 3968 C4360.33 3968.66 4360.66 3969.32 4361 3970 C4363.46389995 3971.28576597 4365.91080088 3972.47713669 4368.4375 3973.625 C4369.47874023 3974.11226562 4369.47874023 3974.11226562 4370.54101562 3974.609375 C4374.12095144 3976.38408041 4374.12095144 3976.38408041 4378 3977 C4378.33 3977.66 4378.66 3978.32 4379 3979 C4381.23202692 3980.21663762 4383.4592583 3981.34137914 4385.75 3982.4375 C4387.20014235 3983.14655167 4388.64931005 3983.85759909 4390.09765625 3984.5703125 C4390.88156738 3984.95606445 4391.66547852 3985.34181641 4392.47314453 3985.73925781 C4397.07629748 3988.03594205 4401.63134218 3990.42429407 4406.1875 3992.8125 C4407.0837207 3993.28034912 4407.97994141 3993.74819824 4408.90332031 3994.23022461 C4409.7537793 3994.6763208 4410.60423828 3995.12241699 4411.48046875 3995.58203125 C4412.23223389 3995.97624268 4412.98399902 3996.3704541 4413.75854492 3996.77661133 C4416 3998 4416 3998 4418.17693392 3999.55308595 C4421.65640302 4001.3364281 4424.59478674 4001.41508349 4428.41051229 4001.37401349 C4429.152712 4001.37800125 4429.89491171 4001.38198901 4430.65960233 4001.38609761 C4433.16126808 4001.39584514 4435.66237622 4001.38411698 4438.16402799 4001.37259549 C4439.98010405 4001.3751913 4441.79617862 4001.37910331 4443.61224934 4001.38421451 C4448.64023093 4001.39450332 4453.6680358 4001.38594458 4458.69600851 4001.37451244 C4464.17414383 4001.36535571 4469.652257 4001.37358618 4475.1303928 4001.37963207 C4484.77946353 4001.387857 4494.42848124 4001.38483798 4504.07754934 4001.37464774 C4518.49444637 4001.35948022 4532.9113109 4001.3615205 4547.3282122 4001.36706184 C4571.9086919 4001.37628247 4596.48915133 4001.3706343 4621.06962836 4001.35764539 C4646.26290676 4001.34438263 4671.4561744 4001.33785537 4696.64945638 4001.33921683 C4697.44940501 4001.33925713 4698.24935363 4001.33929744 4699.07354312 4001.33933897 C4706.40554542 4001.33971068 4713.73754771 4001.34015511 4721.06954999 4001.3406867 C4739.40217244 4001.34201297 4757.73479483 4001.34236706 4776.06741732 4001.34206516 C4776.90523977 4001.34205209 4777.74306222 4001.34203903 4778.60627323 4001.34202558 C4819.67535838 4001.34129908 4860.74443945 4001.32945466 4901.81352234 4001.31672668 C4915.97872668 4001.31234404 4930.14393103 4001.30800182 4944.30913544 4001.30384064 C4945.61538509 4001.30345671 4945.61538509 4001.30345671 4946.94802362 4001.30306502 C4966.49914012 4001.29734733 4986.05025645 4001.29240209 5005.60137367 4001.29009056 C5006.30274892 4001.29000603 5007.00412417 4001.28992151 5007.72675321 4001.28983442 C5051.66431118 4001.28473781 5095.60187075 4001.28525901 5139.53942871 4001.28381348 C5330.13045453 4001.26804237 5520.72147745 4001.22615932 5711.3125 4001.1875 C6136.909375 4001.125625 6562.50625 4001.06375 7001 4001 C7001 2681 7001 1361 7001 1 C4691 1 2381 1 1 1 Z " fill="#09325C" transform="translate(0,0)"/>
<path d="M0 0 C2310.66 0 4621.32 0 7002 0 C7002 1320.66 7002 2641.32 7002 4002 C4691.34 4002 2380.68 4002 0 4002 C0 2681.34 0 1360.68 0 0 Z M1 1 C1 974.5 1 1948 1 2951 C7.6 2954.3 14.2 2957.6 21 2961 C30.84589882 2966.16060904 30.84589882 2966.16060904 34.75390625 2968.234375 C40.98283274 2971.52769101 47.24225244 2974.76188602 53.5 2978 C61.05592203 2981.91100065 68.60463814 2985.83354491 76.125 2989.8125 C85.61080457 2994.82837508 95.15787246 2999.72466258 104.70037842 3004.63143921 C113.45287929 3009.13270793 122.19231775 3013.65478101 130.89160156 3018.25830078 C137.98820978 3022.00801639 145.11871816 3025.69181678 152.25 3029.375 C163.92229174 3035.40408254 175.57851525 3041.46316989 187.22167969 3047.54833984 C191.97993081 3050.03450515 196.74006408 3052.51706233 201.5 3055 C207.20372457 3057.97541564 212.90721521 3060.95127396 218.609375 3063.9296875 C230.04671768 3069.90252201 241.49550939 3075.85283605 252.95214844 3081.78857422 C261.07468903 3085.99815909 269.18792056 3090.22525459 277.296875 3094.4609375 C284.69070238 3098.32125069 292.09407429 3102.16295532 299.5 3106 C312.61132421 3112.79357669 325.70435432 3119.62178509 338.79296875 3126.45898438 C351.16863863 3132.92298489 363.55512386 3139.36561792 375.95214844 3145.78857422 C384.07468903 3149.99815909 392.18792056 3154.22525459 400.296875 3158.4609375 C407.69070238 3162.32125069 415.09407429 3166.16295532 422.5 3170 C433.7431974 3175.82561476 444.97426281 3181.67407867 456.19824219 3187.53662109 C460.92331594 3190.0045622 465.64905483 3192.47122807 470.375 3194.9375 C471.78652344 3195.67419922 471.78652344 3195.67419922 473.2265625 3196.42578125 C481.46670479 3200.72498592 489.71455256 3205.0093074 497.96240234 3209.29370117 C503.98602699 3212.42514483 509.99841048 3215.57657525 516 3218.75 C524.79906665 3223.39992917 533.64960418 3227.94884582 542.5 3232.5 C552.0763376 3237.42445646 561.64494091 3242.36004998 571.1640625 3247.39453125 C577.59354211 3250.79362889 584.04534367 3254.1489898 590.5 3257.5 C597.67900586 3261.22706472 604.84963038 3264.96830632 612 3268.75 C621.52732119 3273.78490106 631.11482057 3278.70240288 640.69781494 3283.63015747 C649.49766752 3288.1559118 658.28505911 3292.70160325 667.03222656 3297.32861328 C674.91480899 3301.49441953 682.83442631 3305.58839661 690.75146484 3309.68823242 C698.00748372 3313.4464494 705.25725543 3317.21626847 712.5 3321 C720.82535965 3325.34878636 729.16012619 3329.67911515 737.5 3334 C746.77380595 3338.80475467 756.0391839 3343.62521617 765.296875 3348.4609375 C772.69070238 3352.32125069 780.09407429 3356.16295532 787.5 3360 C800.61132421 3366.79357669 813.70435432 3373.62178509 826.79296875 3380.45898438 C838.01988625 3386.32297406 849.25391927 3392.17283338 860.5 3398 C871.73445326 3403.82114184 882.95670935 3409.66523645 894.171875 3415.5234375 C897.07225752 3417.03772561 899.97350478 3418.55034509 902.875 3420.0625 C911.63439199 3424.62822589 920.38974649 3429.20074389 929.125 3433.8125 C937.77177648 3438.3750385 946.45553706 3442.86553582 955.1418457 3447.35217285 C964.23819718 3452.05064328 973.32347516 3456.76968137 982.39746094 3461.51123047 C989.75734807 3465.35558338 997.12727735 3469.18032769 1004.5 3473 C1017.61133793 3479.79355008 1030.70435442 3486.62178514 1043.79296875 3493.45898438 C1056.16863863 3499.92298489 1068.55512386 3506.36561792 1080.95214844 3512.78857422 C1089.07468903 3516.99815909 1097.18792056 3521.22525459 1105.296875 3525.4609375 C1112.69070228 3529.32125064 1120.09405887 3533.16298525 1127.5 3537 C1136.77089739 3541.80324774 1146.0335651 3546.62182569 1155.28808594 3551.45654297 C1162.76724231 3555.36180686 1170.25767767 3559.24506603 1177.75 3563.125 C1186.04286739 3567.41999731 1194.32174896 3571.73922713 1202.57910156 3576.10205078 C1210.49950359 3580.27860081 1218.4583734 3584.38056991 1226.41448975 3588.48849487 C1234.52149869 3592.67496499 1242.61336937 3596.88789241 1250.6796875 3601.15234375 C1257.93057701 3604.97850517 1265.21531734 3608.73875162 1272.5 3612.5 C1281.29484508 3617.04108973 1290.07746755 3621.60307047 1298.82910156 3626.22705078 C1306.78084013 3630.42313264 1314.76660256 3634.55325178 1322.75048828 3638.68774414 C1330.93760299 3642.92817615 1339.11501998 3647.18675361 1347.28710938 3651.45605469 C1354.76661182 3655.36144195 1362.2573545 3659.24489867 1369.75 3663.125 C1377.30489099 3667.03778854 1384.85239556 3670.96297958 1392.375 3674.9375 C1400.93772101 3679.46070258 1409.53896842 3683.90869398 1418.14294434 3688.35272217 C1427.23892801 3693.05101232 1436.32383814 3697.76987104 1445.39746094 3702.51123047 C1452.75734796 3706.35558332 1460.12726203 3710.1803574 1467.5 3714 C1476.77381561 3718.80473594 1486.03918396 3723.6252162 1495.296875 3728.4609375 C1502.69070249 3732.32125075 1510.09408973 3736.16292538 1517.5 3740 C1533.53192888 3748.30761977 1549.54719601 3756.64591521 1565.51757812 3765.07128906 C1573.66897585 3769.36453982 1581.85312827 3773.59439815 1590.03466797 3777.82983398 C1596.49397309 3781.17572316 1602.94340369 3784.53867732 1609.375 3787.9375 C1617.93767648 3792.46078583 1626.53896919 3796.90869438 1635.14294434 3801.35272217 C1644.23892801 3806.05101232 1653.32383814 3810.76987104 1662.39746094 3815.51123047 C1669.75734807 3819.35558338 1677.12727735 3823.18032769 1684.5 3827 C1695.7403023 3832.82408576 1706.96841179 3838.67113135 1718.18945312 3844.53222656 C1721.99813415 3846.52126325 1725.8076355 3848.50872584 1729.6171875 3850.49609375 C1732.48967598 3851.99461416 1735.3620257 3853.49340033 1738.234375 3854.9921875 C1742.11930459 3857.0191647 1746.00477808 3859.04509447 1749.890625 3861.0703125 C1758.6446757 3865.63368717 1767.39485217 3870.20354592 1776.125 3874.8125 C1787.1746012 3880.64172354 1798.28036829 3886.36268143 1809.37982178 3892.09616089 C1824.27681718 3899.79164741 1839.17345745 3907.48775898 1854.00244141 3915.3137207 C1861.14476734 3919.0821259 1868.30569732 3922.81450396 1875.46728516 3926.54614258 C1881.36168726 3929.61902803 1887.24687479 3932.70861811 1893.125 3935.8125 C1905.40825958 3942.29203162 1917.75726671 3948.64540831 1930.09667969 3955.01708984 C1947.13574592 3963.81638187 1964.16474607 3972.6341616 1981.16015625 3981.51757812 C1984.17807545 3983.09295685 1987.19819285 3984.66406051 1990.21875 3986.234375 C1991.76393311 3987.03838745 1991.76393311 3987.03838745 1993.34033203 3987.85864258 C1995.29394041 3988.87505331 1997.2480061 3989.89058579 1999.20263672 3990.9050293 C2015.27099471 3999.27099471 2015.27099471 3999.27099471 2017 4001 C2018.8320516 4001.09822225 2020.66794891 4001.12491114 2022.50263163 4001.12486512 C2023.70863322 4001.12726141 2024.91463481 4001.12965769 2026.1571819 4001.13212659 C2027.51678284 4001.12972801 2028.87638363 4001.12723946 2030.23598427 4001.12467116 C2031.67259754 4001.12558745 2033.10921058 4001.12694252 2034.54582307 4001.1286992 C2038.53928298 4001.13228502 2042.53271854 4001.12955431 2046.52617749 4001.12589622 C2050.87531357 4001.12300699 2055.22444629 4001.12589893 2059.57358224 4001.12807148 C2067.25182662 4001.13109486 2074.93006374 4001.1303498 2082.60830797 4001.12723524 C2094.13649373 4001.1225801 2105.66467399 4001.12368442 2117.19286021 4001.12593428 C2136.92448464 4001.12961512 2156.65610629 4001.12850674 2176.38773061 4001.12488318 C2196.51009227 4001.12120832 2216.63245234 4001.11972397 2236.75481432 4001.12089889 C2238.02778637 4001.12097188 2239.30075843 4001.12104487 2240.61230539 4001.12112007 C2247.1112558 4001.12150254 2253.6102062 4001.12192015 2260.10915661 4001.12234976 C2307.65885778 4001.12541749 2355.2085578 4001.12354044 2402.75825882 4001.11920547 C2450.97814002 4001.11482562 2499.19802059 4001.112623 2547.41790199 4001.11310768 C2549.69592326 4001.11312912 2549.69592326 4001.11312912 2552.01996515 4001.11315099 C2565.93694407 4001.11328273 2579.85392299 4001.11343884 2593.7709019 4001.11362399 C2628.67472056 4001.11408718 2663.5785392 4001.11421959 2698.48235786 4001.11413276 C2700.08207592 4001.11412901 2701.68179397 4001.11412527 2703.32998834 4001.11412141 C2782.26072886 4001.11390704 2861.19146915 4001.10993734 2940.12220955 4001.10573006 C2967.92013653 4001.10425092 2995.71806351 4001.10278959 3023.5159905 4001.10139394 C3025.24392539 4001.10130717 3026.97186029 4001.1012204 3028.75215685 4001.10113101 C3108.74929995 4001.09713584 3188.74644303 4001.09570242 3268.74358622 4001.09492797 C3273.97351698 4001.09487721 3279.20344774 4001.09482524 3284.43337851 4001.09477296 C3315.96931589 4001.09445887 3347.50525326 4001.0941715 3379.04119064 4001.09391499 C3457.44449808 4001.09327609 3535.84780551 4001.0923166 3614.25111294 4001.09113979 C3616.92864503 4001.09109984 3616.92864503 4001.09109984 3619.66026867 4001.09105909 C3735.30046238 4001.08933109 3850.940656 4001.08628308 3966.58084965 4001.08213139 C3969.35091428 4001.08203195 3969.35091428 4001.08203195 3972.17693981 4001.08193051 C4028.39386379 4001.07990976 4084.61078776 4001.0777914 4140.82771173 4001.07565394 C4203.03905147 4001.073289 4265.25039121 4001.0709407 4327.46173096 4001.06866455 C4329.33241464 4001.06859605 4331.20309833 4001.06852755 4333.13046939 4001.06845698 C4508.85929733 4001.06202769 4684.58812529 4001.05822506 4860.31695331 4001.05513173 C4871.68762375 4001.05493143 4883.0582942 4001.05472892 4894.42896464 4001.05452599 C5012.92425891 4001.05241226 5131.41955318 4001.05042525 5249.91484745 4001.04849322 C5252.46378175 4001.04845165 5252.46378175 4001.04845165 5255.06420967 4001.04840923 C5262.92693061 4001.048281 5270.78965154 4001.04815292 5278.65237247 4001.04802525 C5852.76824861 4001.03867543 6426.88412394 4001.01851356 7001 4001 C7001 2681 7001 1361 7001 1 C4691 1 2381 1 1 1 Z " fill="#0D3B69" transform="translate(0,0)"/>
</svg>
